custom-analysis
version=1
nRows=4
nColumns=98
inDegrees=no

This file contains tibia displacement and acting force.

Units are S.I. units (seconds, meters, Newtons, ...)
Angles are in degrees.

endheader
time	APT	SIT	knee_angle	aACL_R_force	pACL_R_force	aPCL_R_force	pPCL_R_force	aMCL_R_force	mMCL_R_force	pMCL_R_force	aLCL_R_force	mLCL_R_force	pLCL_R_force	aPCL_L_force	pPCL_L_force	aMCL_L_force	aLCL_L_force	aACL_R_length	pACL_R_length	aPCL_R_length	pPCL_R_length	aMCL_R_length	mMCL_R_length	pMCL_R_length	aLCL_R_length	mLCL_R_length	pLCL_R_length	aPCL_L_length	pPCL_L_length	aMCL_L_length	aLCL_L_length	aACL_R_strain	pACL_R_strain	aPCL_R_strain	pPCL_R_strain	aMCL_R_strain	mMCL_R_strain	pMCL_R_strain	aLCL_R_strain	mLCL_R_strain	pLCL_R_strain	aPCL_L_strain	pPCL_L_strain	aMCL_L_strain	aLCL_L_strain	femur_lat_meniscii_r.femur_lat_r.force.X	femur_lat_meniscii_r.femur_lat_r.force.Y	femur_lat_meniscii_r.femur_lat_r.force.Z	femur_lat_meniscii_r.femur_lat_r.torque.X	femur_lat_meniscii_r.femur_lat_r.torque.Y	femur_lat_meniscii_r.femur_lat_r.torque.Z	femur_lat_meniscii_r.meniscus_lat_r.force.X	femur_lat_meniscii_r.meniscus_lat_r.force.Y	femur_lat_meniscii_r.meniscus_lat_r.force.Z	femur_lat_meniscii_r.meniscus_lat_r.torque.X	femur_lat_meniscii_r.meniscus_lat_r.torque.Y	femur_lat_meniscii_r.meniscus_lat_r.torque.Z	femur_med_meniscii_r.femur_med_r.force.X	femur_med_meniscii_r.femur_med_r.force.Y	femur_med_meniscii_r.femur_med_r.force.Z	femur_med_meniscii_r.femur_med_r.torque.X	femur_med_meniscii_r.femur_med_r.torque.Y	femur_med_meniscii_r.femur_med_r.torque.Z	femur_med_meniscii_r.meniscus_med_r.force.X	femur_med_meniscii_r.meniscus_med_r.force.Y	femur_med_meniscii_r.meniscus_med_r.force.Z	femur_med_meniscii_r.meniscus_med_r.torque.X	femur_med_meniscii_r.meniscus_med_r.torque.Y	femur_med_meniscii_r.meniscus_med_r.torque.Z	femur_med_tibia_r.tibia_upper_r.force.X	femur_med_tibia_r.tibia_upper_r.force.Y	femur_med_tibia_r.tibia_upper_r.force.Z	femur_med_tibia_r.tibia_upper_r.torque.X	femur_med_tibia_r.tibia_upper_r.torque.Y	femur_med_tibia_r.tibia_upper_r.torque.Z	femur_med_tibia_r.femur_med_r.force.X	femur_med_tibia_r.femur_med_r.force.Y	femur_med_tibia_r.femur_med_r.force.Z	femur_med_tibia_r.femur_med_r.torque.X	femur_med_tibia_r.femur_med_r.torque.Y	femur_med_tibia_r.femur_med_r.torque.Z	femur_lat_tibia_r.tibia_upper_r.force.X	femur_lat_tibia_r.tibia_upper_r.force.Y	femur_lat_tibia_r.tibia_upper_r.force.Z	femur_lat_tibia_r.tibia_upper_r.torque.X	femur_lat_tibia_r.tibia_upper_r.torque.Y	femur_lat_tibia_r.tibia_upper_r.torque.Z	femur_lat_tibia_r.femur_lat_r.force.X	femur_lat_tibia_r.femur_lat_r.force.Y	femur_lat_tibia_r.femur_lat_r.force.Z	femur_lat_tibia_r.femur_lat_r.torque.X	femur_lat_tibia_r.femur_lat_r.torque.Y	femur_lat_tibia_r.femur_lat_r.torque.Z	femur_lat_meniscii_force_r	femur_med_meniscii_force_r	femur_lat_tibia_force_r	femur_med_tibia_force_r
      0.16104280	      0.01251946	      0.01676511	     55.17386159	     -9.83974558	      0.00000000	    537.96317854	    365.05325865	      0.00000000	      0.00000000	      0.00000000	      0.00000000	      0.00000000	      0.00000000	      0.00000000	      0.00000000	      0.00000001	      0.00000000	      0.03116000	      0.02384239	      0.03469704	      0.03233020	      0.05937345	      0.05922716	      0.05644095	      0.05239102	      0.04774773	      0.04290427	      0.01525851	      0.01651186	      0.06550154	      0.04489616	      0.00498301	     -0.04853831	      0.11582912	      0.08171880	     -0.01088759	     -0.00947159	     -0.03894305	     -0.06406502	     -0.15218544	     -0.18031997	      0.00000079	     -0.32847694	      0.00000060	     -0.00000086	     46.37194039	    114.23479503	     15.50191456	     -9.03075772	      1.12227849	     17.83877896	    -46.37194039	   -114.23479503	    -15.50191456	      3.21075833	     -1.49690049	      2.33160263	     11.05022970	     13.14698945	      9.83058001	     -3.68514602	     -0.26571220	      4.47626798	    -11.05022970	    -13.14698945	     -9.83058001	     -0.08796534	      0.05363657	      0.04858237	   -766.98458196	   -740.70983810	    225.76432149	    -17.06609061	     17.18925873	     -1.75080462	    766.98458196	    740.70983810	   -225.76432149	    105.16544231	    -13.73636057	    312.37756620	     -9.66348797	    -12.83833903	     -4.27608726	      0.42255491	     -0.34335959	      0.07617898	      9.66348797	     12.83833903	      4.27608726	     -2.05388871	      0.24436657	      3.90766871	    124.25882104	     19.78866371	     16.62801464	   1089.90180387
      0.16135808	      0.01254051	      0.01682563	     55.34558857	     -9.82929302	      0.00000000	    541.83605706	    366.81994251	      0.00000000	      0.00000000	      0.00000000	      0.00000000	      0.00000000	      0.00000000	      0.00000000	      0.00000000	      0.00000001	      0.00000000	      0.03115192	      0.02383621	      0.03471951	      0.03234275	      0.05938910	      0.05922839	      0.05643263	      0.05238501	      0.04773356	      0.04288599	      0.01525851	      0.01651186	      0.06550154	      0.04489616	      0.00472249	     -0.04878525	      0.11655177	      0.08213885	     -0.01062689	     -0.00945101	     -0.03908479	     -0.06417235	     -0.15243699	     -0.18066912	      0.00000079	     -0.32847694	      0.00000060	     -0.00000086	     46.08027378	    114.36199695	     15.18365005	     -8.90773372	      1.11091960	     17.71005916	    -46.08027378	   -114.36199695	    -15.18365005	      3.21029045	     -1.47977559	      2.35908443	     11.20781697	     13.03259783	      9.73567489	     -3.64855875	     -0.26946780	      4.53854297	    -11.20781697	    -13.03259783	     -9.73567489	     -0.08849614	      0.05847244	      0.04604365	   -772.39151328	   -741.05190693	    225.41095997	    -17.05612366	     17.29459354	     -1.74847629	    772.39151328	    741.05190693	   -225.41095997	    105.03125740	    -13.84498548	    314.54420423	     -8.96852152	    -11.85852736	     -3.92987678	      0.38914482	     -0.31789962	      0.07149653	      8.96852152	     11.85852736	      3.92987678	     -1.88845546	      0.22654663	      3.62579794	    124.22802102	     19.75467370	     15.37865342	   1093.87233232
      0.16200567	      0.01258314	      0.01695014	     55.69844439	     -9.65403261	      0.00000000	    549.68704516	    370.30968941	      0.00000000	      0.00000000	      0.00000000	      0.00000000	      0.00000000	      0.00000000	      0.00000000	      0.00000000	      0.00000001	      0.00000000	      0.03113552	      0.02382388	      0.03476533	      0.03236831	      0.05942126	      0.05923103	      0.05641579	      0.05237208	      0.04770399	      0.04284818	      0.01525851	      0.01651186	      0.06550154	      0.04489616	      0.00419331	     -0.04927693	      0.11802531	      0.08299395	     -0.01009117	     -0.00940682	     -0.03937148	     -0.06440340	     -0.15296204	     -0.18139145	      0.00000079	     -0.32847694	      0.00000060	     -0.00000086	     46.85281366	    114.56148548	     14.47968010	     -8.62184522	      1.12690160	     18.01477432	    -46.85281366	   -114.56148548	    -14.47968010	      3.19564347	     -1.48474180	      2.37431729	     11.34576084	     12.58929990	      9.49250356	     -3.55958048	     -0.27194176	      4.59129848	    -11.34576084	    -12.58929990	     -9.49250356	     -0.08506327	      0.06442101	      0.04012431	   -784.31346846	   -741.12219946	    226.18602513	    -17.06126742	     17.56033617	     -1.78911070	    784.31346846	    741.12219946	   -226.18602513	    105.36029972	    -14.08949150	    319.34383264	     -8.10911047	    -10.54802002	     -3.46175428	      0.34431642	     -0.28547861	      0.06338858	      8.10911047	     10.54802002	      3.46175428	     -1.66513084	      0.20424899	      3.27810849	    124.61613555	     19.42483938	     13.74780497	   1102.52884284
      0.16207042	      0.01258736	      0.01696260	     55.73374182	     -9.64860748	      0.00000000	    550.47537674	    370.67290226	      0.00000000	      0.00000000	      0.00000000	      0.00000000	      0.00000000	      0.00000000	      0.00000000	      0.00000000	      0.00000001	      0.00000000	      0.03113390	      0.02382269	      0.03476989	      0.03237085	      0.05942448	      0.05923131	      0.05641413	      0.05237075	      0.04770101	      0.04284439	      0.01525851	      0.01651186	      0.06550154	      0.04489616	      0.00414105	     -0.04932477	      0.11817193	      0.08307897	     -0.01003749	     -0.00940216	     -0.03939971	     -0.06442718	     -0.15301504	     -0.18146395	      0.00000079	     -0.32847694	      0.00000060	     -0.00000086	     46.82349888	    114.77951104	     14.40547930	     -8.59710840	      1.12521324	     17.99873064	    -46.82349888	   -114.77951104	    -14.40547930	      3.19978969	     -1.48172024	      2.38525244	     11.37937620	     12.56559352	      9.46033390	     -3.54689738	     -0.27275725	      4.60452709	    -11.37937620	    -12.56559352	     -9.46033390	     -0.08544438	      0.06571740	      0.03963900	   -785.68102136	   -741.30278069	    226.43159715	    -17.06872305	     17.59364011	     -1.79345368	    785.68102136	    741.30278069	   -226.43159715	    105.46530216	    -14.11757990	    319.89538191	     -8.04008500	    -10.42505404	     -3.38588926	      0.33913751	     -0.28172076	      0.06222880	      8.04008500	     10.42505404	      3.38588926	     -1.63087787	      0.20207308	      3.25035258	    124.79701133	     19.41345566	     13.59371048	   1103.67375078
